Coordinates
version=1
nRows=41
nColumns=38
inDegrees=no

Units are S.I. units (second, meters, Newtons, ...)
If the header above contains a line with 'inDegrees', this indicates whether rotational values are in degrees (yes) or radians (no).

endheader
time	pelvis_tilt	pelvis_list	pelvis_rotation	pelvis_tx	pelvis_ty	pelvis_tz	hip_flexion_r	hip_adduction_r	hip_rotation_r	knee_angle_r	ankle_angle_r	subtalar_angle_r	mtp_angle_r	hip_flexion_l	hip_adduction_l	hip_rotation_l	knee_angle_l	ankle_angle_l	subtalar_angle_l	mtp_angle_l	lumbar_extension	lumbar_bending	lumbar_rotation	arm_flex_r	arm_add_r	arm_rot_r	elbow_flex_r	pro_sup_r	wrist_flex_r	wrist_dev_r	arm_flex_l	arm_add_l	arm_rot_l	elbow_flex_l	pro_sup_l	wrist_flex_l	wrist_dev_l
0.44	0.112172	1.40099	1.38645	0.732698	1.17902	1.00609	0.0645485	0.0549179	-0.00942543	0.546688	0.266588	0	0	0.653831	-0.178745	-0.225049	0.52192	0.183939	0	0	0.143476	0.0298553	0.156492	0.0616564	-0.512742	0.381352	0.8899	1.10851	0	0	-0.134013	-0.184249	0.540862	0.225556	1.38307	0	0
0.45	0.0897936	1.40154	1.4035	0.732189	1.19169	1.0046	0.057695	0.0476179	-0.00982835	0.557829	0.264677	0	0	0.652485	-0.175251	-0.223678	0.522111	0.18434	0	0	0.146521	0.0217887	0.162586	0.0599858	-0.509834	0.376148	0.886244	1.10979	0	0	-0.134565	-0.184796	0.543377	0.218758	1.38199	0	0
0.46	0.0654582	1.40192	1.42218	0.731548	1.20461	1.00318	0.0516527	0.0394468	-0.0095077	0.570307	0.261178	0	0	0.651022	-0.171674	-0.223868	0.527659	0.181925	0	0	0.14911	0.0136784	0.170722	0.0538988	-0.507324	0.366804	0.88494	1.11039	0	0	-0.133824	-0.185352	0.547353	0.211921	1.38064	0	0
0.47	0.0447841	1.40396	1.436	0.730898	1.21796	1.00194	0.0437247	0.0314849	-0.00638405	0.581837	0.255013	0	0	0.646348	-0.169544	-0.227332	0.537656	0.178625	0	0	0.150515	0.00647562	0.179959	0.0459799	-0.505126	0.35746	0.883837	1.11039	0	0	-0.133667	-0.186026	0.551472	0.205686	1.37927	0	0
0.48	0.025695	1.40595	1.4483	0.73018	1.23163	1.00077	0.0364717	0.0237502	-0.00239046	0.594273	0.246278	0	0	0.640563	-0.167462	-0.230065	0.550417	0.174496	0	0	0.15264	-0.000196439	0.189003	0.0362404	-0.502677	0.348483	0.88263	1.1097	0	0	-0.133973	-0.186708	0.555505	0.199497	1.37748	0	0
0.49	0.0066784	1.4076	1.46013	0.729405	1.2456	0.999618	0.0309081	0.0158448	0.002985	0.609331	0.23468	0	0	0.633485	-0.165392	-0.233306	0.564137	0.167877	0	0	0.15612	-0.00649876	0.198971	0.0240718	-0.499679	0.338896	0.881028	1.10802	0	0	-0.134672	-0.187575	0.561418	0.193071	1.37544	0	0
0.5	-0.0179418	1.40918	1.4778	0.728524	1.25983	0.998638	0.0268933	0.00696275	0.00958134	0.626605	0.22041	0	0	0.625672	-0.162915	-0.242631	0.577896	0.1556	0	0	0.160697	-0.0138804	0.209097	0.0110513	-0.495597	0.33058	0.877262	1.10589	0	0	-0.135463	-0.188895	0.569511	0.186388	1.37242	0	0
0.51	-0.0590396	1.41207	1.51273	0.727555	1.27408	0.998156	0.0232955	-0.00421644	0.0182569	0.64643	0.204699	0	0	0.618075	-0.160096	-0.2654	0.593921	0.139857	0	0	0.163868	-0.024931	0.217614	0.00111765	-0.489347	0.326819	0.868533	1.1046	0	0	-0.135612	-0.190775	0.575595	0.1797	1.36545	0	0
0.52	-0.1158	1.41548	1.56578	0.726567	1.2882	0.998212	0.0214665	-0.0165281	0.0278883	0.670332	0.186728	0	0	0.612762	-0.156955	-0.291014	0.614513	0.124425	0	0	0.165887	-0.039949	0.223113	-0.005352	-0.480055	0.327085	0.854037	1.10508	0	0	-0.135023	-0.193966	0.582699	0.172916	1.3579	0	0
0.53	-0.178308	1.41795	1.62784	0.725465	1.30211	0.998642	0.0233048	-0.0281057	0.0385239	0.698502	0.164254	0	0	0.608846	-0.152746	-0.303226	0.634758	0.106112	0	0	0.167404	-0.0567183	0.224275	-0.00933769	-0.468662	0.330143	0.836081	1.10744	0	0	-0.133901	-0.197834	0.588037	0.166768	1.34702	0	0
0.54	-0.241062	1.4205	1.69247	0.724194	1.31596	0.999383	0.0277801	-0.0387277	0.0489859	0.730573	0.134914	0	0	0.605144	-0.14933	-0.313123	0.656753	0.0878463	0	0	0.167717	-0.0730276	0.221773	-0.0124617	-0.456921	0.33517	0.81724	1.11	0	0	-0.132927	-0.201843	0.594946	0.161604	1.33352	0	0
0.55	-0.297145	1.42118	1.75366	0.722535	1.32965	1.00018	0.0373143	-0.0480029	0.0578048	0.766606	0.100104	0	0	0.601982	-0.14221	-0.313107	0.673427	0.0744797	0	0	0.168981	-0.0878469	0.215944	-0.0171239	-0.446132	0.340722	0.799761	1.11139	0	0	-0.131722	-0.205547	0.603843	0.156624	1.32158	0	0
0.56	-0.341951	1.42012	1.806	0.720516	1.34312	1.00094	0.0518316	-0.05563	0.0652815	0.805725	0.0584024	0	0	0.599059	-0.132552	-0.306518	0.684994	0.0639787	0	0	0.171289	-0.100401	0.207237	-0.0231056	-0.437142	0.347764	0.78416	1.11418	0	0	-0.130377	-0.20874	0.614403	0.152062	1.31107	0	0
0.57	-0.378322	1.4184	1.85049	0.718329	1.35628	1.00167	0.0701545	-0.0617045	0.0730961	0.846799	0.0101168	0	0	0.595357	-0.122888	-0.299629	0.693941	0.0558463	0	0	0.172914	-0.110911	0.196242	-0.0295183	-0.42947	0.355695	0.771163	1.116	0	0	-0.128694	-0.21141	0.623348	0.148879	1.2991	0	0
0.58	-0.406735	1.41617	1.88692	0.716149	1.3691	1.00235	0.0918161	-0.0659629	0.0815929	0.88913	-0.041695	0	0	0.590314	-0.114023	-0.293746	0.70035	0.0502483	0	0	0.174206	-0.119653	0.184002	-0.0364091	-0.422788	0.364145	0.760308	1.11418	0	0	-0.126725	-0.214075	0.633439	0.146921	1.28964	0	0
0.59	-0.427156	1.41331	1.91513	0.714083	1.38163	1.00299	0.116478	-0.0682209	0.0903883	0.932243	-0.0958231	0	0	0.583994	-0.105509	-0.288279	0.70398	0.047974	0	0	0.175586	-0.126948	0.170362	-0.042591	-0.417406	0.376439	0.750722	1.10761	0	0	-0.124568	-0.216916	0.642707	0.146597	1.27818	0	0
0.6	-0.447096	1.41062	1.94166	0.712174	1.39377	1.00368	0.143171	-0.069307	0.100304	0.976838	-0.146882	0	0	0.575447	-0.0967097	-0.284757	0.705266	0.049047	0	0	0.175606	-0.133765	0.157282	-0.0483999	-0.412661	0.390061	0.742277	1.10076	0	0	-0.121198	-0.219844	0.650409	0.14713	1.27102	0	0
0.61	-0.468396	1.40824	1.96819	0.710419	1.40557	1.00448	0.171947	-0.069941	0.110313	1.02201	-0.205904	0	0	0.564899	-0.0877046	-0.284171	0.705451	0.053141	0	0	0.174229	-0.140207	0.143905	-0.052008	-0.408671	0.408105	0.733594	1.09054	0	0	-0.117123	-0.223066	0.655838	0.14941	1.26264	0	0
0.62	-0.495102	1.40719	1.99868	0.708797	1.41708	1.00549	0.201042	-0.070689	0.119786	1.06706	-0.264969	0	0	0.551397	-0.0788308	-0.287832	0.705654	0.0597748	0	0	0.170333	-0.146479	0.131628	-0.0544518	-0.404958	0.428182	0.724709	1.08014	0	0	-0.111786	-0.226681	0.661127	0.152809	1.2584	0	0
0.63	-0.524606	1.40758	2.03092	0.707247	1.42841	1.00672	0.229897	-0.0714207	0.127902	1.11092	-0.317129	0	0	0.535389	-0.0704497	-0.294445	0.706506	0.0685741	0	0	0.164349	-0.151945	0.120807	-0.0569044	-0.401012	0.447614	0.715543	1.07164	0	0	-0.105211	-0.230294	0.666177	0.156837	1.25865	0	0
0.64	-0.551644	1.40959	2.06017	0.705804	1.43962	1.00818	0.257714	-0.0709516	0.134502	1.15254	-0.356089	0	0	0.517179	-0.0633397	-0.302347	0.707354	0.0793033	0	0	0.156948	-0.155699	0.110508	-0.05868	-0.39716	0.468407	0.705446	1.06212	0	0	-0.0979495	-0.233917	0.6709	0.16142	1.26202	0	0
0.65	-0.573471	1.41369	2.08447	0.704424	1.45071	1.00986	0.28341	-0.0685274	0.138539	1.19145	-0.372015	0	0	0.497153	-0.0579897	-0.30982	0.708015	0.089694	0	0	0.147452	-0.157044	0.100431	-0.0611205	-0.393111	0.48644	0.695636	1.05844	0	0	-0.0892922	-0.23753	0.674417	0.166699	1.26559	0	0
0.66	-0.590361	1.41937	2.10401	0.703101	1.46163	1.01167	0.307657	-0.0647163	0.139971	1.22707	-0.375012	0	0	0.476315	-0.0540734	-0.314764	0.70829	0.101244	0	0	0.136723	-0.156103	0.0888507	-0.0613844	-0.390095	0.510156	0.685125	1.05449	0	0	-0.0806291	-0.241267	0.674817	0.173568	1.26899	0	0
0.67	-0.60283	1.42586	2.11819	0.701978	1.47245	1.01355	0.331726	-0.0599785	0.140246	1.25972	-0.368116	0	0	0.454761	-0.0518601	-0.317451	0.706412	0.111426	0	0	0.125936	-0.153336	0.0776038	-0.0608331	-0.387693	0.537164	0.674571	1.05009	0	0	-0.0722139	-0.245122	0.671801	0.181469	1.2733	0	0
0.68	-0.607793	1.43237	2.12402	0.701038	1.48314	1.0154	0.356727	-0.0543866	0.14026	1.28924	-0.360025	0	0	0.433737	-0.0513445	-0.317285	0.702231	0.118998	0	0	0.116194	-0.148851	0.0676004	-0.0611369	-0.385322	0.563366	0.664471	1.04773	0	0	-0.0635153	-0.249102	0.668089	0.189846	1.28005	0	0
0.69	-0.584726	1.43664	2.10548	0.699979	1.49399	1.01698	0.384585	-0.0485138	0.135626	1.3137	-0.355409	0	0	0.418046	-0.0518808	-0.310057	0.697096	0.123713	0	0	0.111686	-0.14238	0.0549826	-0.063907	-0.382183	0.587364	0.653852	1.04648	0	0	-0.056162	-0.253623	0.663196	0.199019	1.2887	0	0
0.7	-0.555255	1.4403	2.08026	0.698939	1.50475	1.01846	0.413217	-0.0430496	0.130811	1.33433	-0.35352	0	0	0.403794	-0.0529018	-0.300804	0.690826	0.126351	0	0	0.108333	-0.135033	0.0432336	-0.0680509	-0.379332	0.608966	0.644078	1.04553	0	0	-0.0488472	-0.258393	0.656643	0.209434	1.29835	0	0
0.71	-0.523299	1.44307	2.05246	0.697887	1.51535	1.01985	0.442446	-0.0387599	0.125433	1.35117	-0.352378	0	0	0.390562	-0.0535455	-0.290468	0.683468	0.127662	0	0	0.105717	-0.127492	0.032117	-0.0730669	-0.376788	0.629344	0.635053	1.04488	0	0	-0.0414682	-0.26347	0.647667	0.221482	1.30718	0	0
0.72	-0.486156	1.44579	2.02012	0.696856	1.52594	1.02119	0.470581	-0.0347011	0.119242	1.36319	-0.3499	0	0	0.377343	-0.0548301	-0.280287	0.675897	0.128763	0	0	0.103468	-0.119372	0.0205191	-0.0788844	-0.373784	0.647575	0.625771	1.0422	0	0	-0.0345117	-0.269067	0.638056	0.234828	1.31592	0	0
0.73	-0.447367	1.44808	1.98626	0.695798	1.53649	1.02247	0.497621	-0.0311212	0.112489	1.37075	-0.343161	0	0	0.363772	-0.0562542	-0.272006	0.667966	0.130464	0	0	0.10195	-0.111159	0.00956559	-0.0854279	-0.370831	0.664915	0.616141	1.039	0	0	-0.0276566	-0.274842	0.629366	0.248612	1.32624	0	0
0.74	-0.408853	1.45028	1.95261	0.694697	1.54702	1.02368	0.522894	-0.0279939	0.104895	1.37371	-0.331397	0	0	0.349464	-0.05787	-0.266431	0.660528	0.133319	0	0	0.100434	-0.102785	-0.000740437	-0.0926696	-0.368169	0.68104	0.606815	1.03556	0	0	-0.0208107	-0.280734	0.620437	0.263337	1.33626	0	0
0.75	-0.371862	1.45286	1.92058	0.693563	1.55753	1.02481	0.546479	-0.0257281	0.0962203	1.37271	-0.317045	0	0	0.333868	-0.0596337	-0.26328	0.653489	0.137649	0	0	0.0981927	-0.0943287	-0.0110931	-0.0997077	-0.365942	0.69788	0.597528	1.03023	0	0	-0.0145896	-0.287044	0.609055	0.280147	1.34674	0	0
0.76	-0.337498	1.45644	1.89106	0.692419	1.56805	1.02591	0.567429	-0.023816	0.087192	1.3678	-0.301331	0	0	0.316292	-0.0614422	-0.261556	0.646105	0.142997	0	0	0.0946411	-0.0857873	-0.02057	-0.107423	-0.363801	0.712704	0.588517	1.02458	0	0	-0.00831699	-0.293699	0.597872	0.298373	1.35554	0	0
0.77	-0.298289	1.45993	1.85757	0.691246	1.57863	1.02689	0.586756	-0.0221729	0.077228	1.35902	-0.283952	0	0	0.298727	-0.0633397	-0.258189	0.638239	0.148401	0	0	0.0913975	-0.0770792	-0.0306836	-0.115208	-0.360808	0.727267	0.578055	1.0183	0	0	-0.00260695	-0.30078	0.587293	0.31768	1.36299	0	0
0.78	-0.254837	1.46112	1.82058	0.689971	1.58904	1.02749	0.607825	-0.0219415	0.0666734	1.34738	-0.266202	0	0	0.284251	-0.0652489	-0.254836	0.630482	0.152286	0	0	0.090377	-0.0686748	-0.0412949	-0.123122	-0.357678	0.741691	0.567351	1.01143	0	0	0.00253062	-0.308151	0.576872	0.338109	1.36903	0	0
0.79	-0.210386	1.46221	1.78284	0.688715	1.59944	1.02795	0.62741	-0.0220735	0.0562417	1.33271	-0.2464	0	0	0.270758	-0.0673249	-0.249832	0.623626	0.155269	0	0	0.0892307	-0.0601527	-0.0521425	-0.131029	-0.354314	0.754592	0.556399	1.00301	0	0	0.00725168	-0.31579	0.566765	0.359385	1.37405	0	0
0.8	-0.169025	1.46377	1.74773	0.687495	1.60989	1.02837	0.64477	-0.022482	0.0468302	1.3154	-0.224023	0	0	0.256359	-0.0695511	-0.245336	0.615932	0.15714	0	0	0.0873098	-0.0518887	-0.0626142	-0.13848	-0.350604	0.766882	0.544631	0.993484	0	0	0.0116677	-0.323533	0.556512	0.380812	1.37852	0	0
0.81	-0.132203	1.46564	1.71608	0.686387	1.62035	1.02872	0.660262	-0.0228384	0.0390432	1.29557	-0.199869	0	0	0.240715	-0.071927	-0.243015	0.607235	0.158472	0	0	0.0847898	-0.0440431	-0.0724498	-0.144704	-0.346399	0.780741	0.531374	0.984427	0	0	0.0160244	-0.330879	0.545783	0.401144	1.38146	0	0
0.82	-0.0908085	1.46644	1.68021	0.685325	1.63083	1.02884	0.674902	-0.0230865	0.0313852	1.27255	-0.174756	0	0	0.226783	-0.0745888	-0.23945	0.600531	0.161421	0	0	0.083552	-0.0359913	-0.0826558	-0.150599	-0.341852	0.795573	0.517134	0.975695	0	0	0.0196785	-0.33836	0.535276	0.421497	1.38471	0	0
0.83	-0.049538	1.46606	1.64509	0.684248	1.6413	1.02874	0.688771	-0.0240681	0.0236178	1.24627	-0.149229	0	0	0.21424	-0.0770589	-0.234783	0.595026	0.165494	0	0	0.0836631	-0.0281364	-0.0935356	-0.156094	-0.336771	0.811084	0.501654	0.967524	0	0	0.0228064	-0.345486	0.524624	0.441184	1.38843	0	0
0.84	-0.0148555	1.46474	1.61625	0.683255	1.65175	1.02846	0.701851	-0.0258003	0.0165623	1.21698	-0.124047	0	0	0.202142	-0.0791748	-0.231102	0.58944	0.169912	0	0	0.0848411	-0.0209847	-0.104216	-0.161046	-0.33109	0.827557	0.484909	0.959837	0	0	0.0255774	-0.352177	0.513577	0.459821	1.3917	0	0
